{
    "asset": {
        "generator": "FBX2glTF v0.9.7",
        "version": "2.0"
    },
    "scene": 0,
    "buffers": [
        {
            "byteLength": 877632,
            "uri": "data:application/octet-stream;base64,"
        }
    ],
    "bufferViews": [
        {
            "buffer": 0,
            "byteLength": 43392,
            "byteOffset": 0,
            "target": 34963
        },
        {
            "buffer": 0,
            "byteLength": 51696,
            "byteOffset": 43392,
            "target": 34962
        },
        {
            "buffer": 0,
            "byteLength": 51696,
            "byteOffset": 95088,
            "target": 34962
        },
        {
            "buffer": 0,
            "byteLength": 34464,
            "byteOffset": 146784,
            "target": 34962
        },
        {
            "buffer": 0,
            "byteLength": 165024,
            "byteOffset": 181248,
            "target": 34963
        },
        {
            "buffer": 0,
            "byteLength": 180888,
            "byteOffset": 346272,
            "target": 34962
        },
        {
            "buffer": 0,
            "byteLength": 180888,
            "byteOffset": 527160,
            "target": 34962
        },
        {
            "buffer": 0,
            "byteLength": 120592,
            "byteOffset": 708048,
            "target": 34962
        },
        {
            "buffer": 0,
            "byteLength": 12672,
            "byteOffset": 828640,
            "target": 34963
        },
        {
            "buffer": 0,
            "byteLength": 13620,
            "byteOffset": 841312,
            "target": 34962
        },
        {
            "buffer": 0,
            "byteLength": 13620,
            "byteOffset": 854932,
            "target": 34962
        },
        {
            "buffer": 0,
            "byteLength": 9080,
            "byteOffset": 868552,
            "target": 34962
        }
    ],
    "scenes": [
        {
            "name": "Root Scene",
            "nodes": [
                0
            ]
        }
    ],
    "accessors": [
        {
            "componentType": 5123,
            "type": "SCALAR",
            "count": 21696,
            "bufferView": 0,
            "byteOffset": 0
        },
        {
            "componentType": 5126,
            "type": "VEC3",
            "count": 4308,
            "bufferView": 1,
            "byteOffset": 0,
            "min": [
                -0.000451472908025607,
                2.99160501526785e-06,
                -0.000554287515114993
            ],
            "max": [
                0.000451472908025607,
                0.00105593877378851,
                0.000294604717055336
            ]
        },
        {
            "componentType": 5126,
            "type": "VEC3",
            "count": 4308,
            "bufferView": 2,
            "byteOffset": 0
        },
        {
            "componentType": 5126,
            "type": "VEC2",
            "count": 4308,
            "bufferView": 3,
            "byteOffset": 0
        },
        {
            "componentType": 5123,
            "type": "SCALAR",
            "count": 82512,
            "bufferView": 4,
            "byteOffset": 0
        },
        {
            "componentType": 5126,
            "type": "VEC3",
            "count": 15074,
            "bufferView": 5,
            "byteOffset": 0,
            "min": [
                -0.000332770752720535,
                -0.000243953225435689,
                -0.000212465587537736
            ],
            "max": [
                0.000332770665409043,
                0.00029732080292888,
                0.000406694220146164
            ]
        },
        {
            "componentType": 5126,
            "type": "VEC3",
            "count": 15074,
            "bufferView": 6,
            "byteOffset": 0
        },
        {
            "componentType": 5126,
            "type": "VEC2",
            "count": 15074,
            "bufferView": 7,
            "byteOffset": 0
        },
        {
            "componentType": 5123,
            "type": "SCALAR",
            "count": 6336,
            "bufferView": 8,
            "byteOffset": 0
        },
        {
            "componentType": 5126,
            "type": "VEC3",
            "count": 1135,
            "bufferView": 9,
            "byteOffset": 0,
            "min": [
                -0.000451472908025607,
                1.03570682767895e-05,
                -0.000633509655017406
            ],
            "max": [
                0.000451472908025607,
                0.0011312955757603,
                0.000294604717055336
            ]
        },
        {
            "componentType": 5126,
            "type": "VEC3",
            "count": 1135,
            "bufferView": 10,
            "byteOffset": 0
        },
        {
            "componentType": 5126,
            "type": "VEC2",
            "count": 1135,
            "bufferView": 11,
            "byteOffset": 0
        }
    ],
    "images": [
        {
            "name": "Mouth color map.png",
            "uri": "Mouth color map.png"
        },
        {
            "name": "Teeth dirty color map(only for mouth).png",
            "uri": "Teeth dirty color map(only for mouth).png"
        }
    ],
    "samplers": [
        {}
    ],
    "textures": [
        {
            "name": "file9",
            "sampler": 0,
            "source": 0
        },
        {
            "name": "file10",
            "sampler": 0,
            "source": 1
        }
    ],
    "materials": [
        {
            "name": "Shadow plane material",
            "alphaMode": "OPAQUE",
            "extras": {
                "fromFBX": {
                    "shadingModel": "Phong",
                    "isTruePBR": false
                }
            },
            "pbrMetallicRoughness": {
                "baseColorFactor": [
                    0.800000011920929,
                    0.800000011920929,
                    0.800000011920929,
                    1.0
                ],
                "metallicFactor": 0.400000005960464,
                "roughnessFactor": 0.301511347293854
            }
        },
        {
            "name": "MouthPBR",
            "alphaMode": "OPAQUE",
            "extras": {
                "fromFBX": {
                    "shadingModel": "Phong",
                    "isTruePBR": false
                }
            },
            "pbrMetallicRoughness": {
                "baseColorTexture": {
                    "index": 0,
                    "texCoord": 0
                },
                "baseColorFactor": [
                    1.0,
                    1.0,
                    1.0,
                    1.0
                ],
                "metallicFactor": 0.400000005960464,
                "roughnessFactor": 0.301511347293854
            }
        },
        {
            "name": "TeethPBR",
            "alphaMode": "OPAQUE",
            "extras": {
                "fromFBX": {
                    "shadingModel": "Phong",
                    "isTruePBR": false
                }
            },
            "pbrMetallicRoughness": {
                "baseColorTexture": {
                    "index": 1,
                    "texCoord": 0
                },
                "baseColorFactor": [
                    1.0,
                    1.0,
                    1.0,
                    1.0
                ],
                "metallicFactor": 0.400000005960464,
                "roughnessFactor": 0.301511347293854
            }
        }
    ],
    "meshes": [
        {
            "name": "Mouth1",
            "primitives": [
                {
                    "material": 1,
                    "mode": 4,
                    "attributes": {
                        "NORMAL": 2,
                        "POSITION": 1,
                        "TEXCOORD_0": 3
                    },
                    "indices": 0
                }
            ]
        },
        {
            "name": "Teeth\"",
            "primitives": [
                {
                    "material": 2,
                    "mode": 4,
                    "attributes": {
                        "NORMAL": 6,
                        "POSITION": 5,
                        "TEXCOORD_0": 7
                    },
                    "indices": 4
                }
            ]
        },
        {
            "name": "Shadow plane1",
            "primitives": [
                {
                    "material": 0,
                    "mode": 4,
                    "attributes": {
                        "NORMAL": 10,
                        "POSITION": 9,
                        "TEXCOORD_0": 11
                    },
                    "indices": 8
                }
            ]
        }
    ],
    "nodes": [
        {
            "name": "RootNode",
            "translation": [
                0.0,
                0.0,
                0.0
            ],
            "rotation": [
                0.0,
                0.0,
                0.0,
                1.0
            ],
            "scale": [
                1.0,
                1.0,
                1.0
            ],
            "children": [
                1
            ]
        },
        {
            "name": "group2",
            "translation": [
                0.0,
                0.0,
                0.0
            ],
            "rotation": [
                0.0,
                0.0,
                0.0,
                1.0
            ],
            "scale": [
                1.0,
                1.0,
                1.0
            ],
            "children": [
                2,
                3,
                4
            ]
        },
        {
            "name": "Shadow plane1",
            "translation": [
                0.0,
                0.01382808201015,
                0.0235934853553772
            ],
            "rotation": [
                -0.70710676908493,
                -0.0,
                0.0,
                0.70710676908493
            ],
            "scale": [
                100.0,
                100.0,
                100.0
            ],
            "mesh": 2
        },
        {
            "name": "Mouth1",
            "translation": [
                0.0,
                0.01382808201015,
                0.0235934853553772
            ],
            "rotation": [
                -0.70710676908493,
                -0.0,
                0.0,
                0.70710676908493
            ],
            "scale": [
                100.0,
                100.0,
                100.0
            ],
            "mesh": 0
        },
        {
            "name": "Teeth\"",
            "translation": [
                0.0,
                0.0,
                0.0
            ],
            "rotation": [
                -0.70710676908493,
                -0.0,
                0.0,
                0.70710676908493
            ],
            "scale": [
                100.0,
                100.0,
                100.0
            ],
            "mesh": 1
        }
    ]
}